<svg width="163" height="36" viewBox="0 0 163 36" fill="none" xmlns="http://www.w3.org/2000/svg">
<path fill-rule="evenodd" clip-rule="evenodd" d="M3.25946e-06 5.4L16.2 0L32.4 5.4V14.598C32.4019 17.8602 31.5977 21.0723 30.059 23.9488C28.5202 26.8252 26.2946 29.277 23.58 31.086L16.2 36L8.82 31.086C6.10537 29.277 3.87976 26.8252 2.34103 23.9488C0.802305 21.0723 -0.00186835 17.8602 3.25946e-06 14.598V5.4ZM1.38857 6.36429L16.2 1.38857L31.0114 6.36429V14.8396C31.0131 17.8455 30.2779 20.8052 28.8711 23.4556C27.4642 26.1061 25.4294 28.3652 22.9474 30.0321L16.2 34.56L9.45257 30.0321C6.97062 28.3652 4.93578 26.1061 3.52894 23.4556C2.12211 20.8052 1.38686 17.8455 1.38857 14.8396V6.36429Z" fill="white"/>
<path d="M11.0443 21.8876C10.1753 21.8876 9.41995 21.774 8.77813 21.5469C8.1363 21.3198 7.64258 21.0088 7.29698 20.6138C6.96126 20.2188 6.79339 19.7646 6.79339 19.2512C6.79339 18.4513 7.29698 18.0514 8.30416 18.0514C8.32391 18.8315 8.57077 19.424 9.04473 19.8288C9.52857 20.2336 10.205 20.4361 11.0739 20.4361C11.8342 20.4361 12.4217 20.3077 12.8365 20.051C13.2512 19.7942 13.4585 19.424 13.4585 18.9401C13.4585 18.634 13.3795 18.3872 13.2216 18.1995C13.0636 18.0021 12.797 17.8293 12.4217 17.6811C12.0465 17.5232 11.5034 17.3652 10.7925 17.2072C9.84455 16.9998 9.0941 16.7579 8.54114 16.4814C7.99806 16.2049 7.60309 15.8742 7.35623 15.4891C7.10937 15.104 6.98594 14.6251 6.98594 14.0523C6.98594 13.4994 7.14887 13.0106 7.47472 12.586C7.80057 12.1614 8.25973 11.8356 8.85218 11.6085C9.44464 11.3715 10.1309 11.253 10.911 11.253C11.6515 11.253 12.3181 11.3567 12.9105 11.564C13.503 11.7615 13.9671 12.0429 14.3028 12.4083C14.6385 12.7736 14.8064 13.1933 14.8064 13.6672C14.8064 14.3486 14.3275 14.704 13.3697 14.7337C13.2907 14.0227 13.0537 13.5043 12.6587 13.1785C12.2736 12.8526 11.691 12.6897 10.911 12.6897C10.2198 12.6897 9.68656 12.8082 9.31134 13.0452C8.93611 13.2821 8.7485 13.6179 8.7485 14.0523C8.7485 14.3486 8.81762 14.5954 8.95586 14.7929C9.10398 14.9805 9.3459 15.1484 9.68162 15.2965C10.0173 15.4347 10.5012 15.573 11.1331 15.7112C12.1403 15.9383 12.9401 16.1951 13.5326 16.4814C14.1251 16.7579 14.5496 17.0936 14.8064 17.4886C15.073 17.8737 15.2063 18.3575 15.2063 18.9401C15.2063 19.5424 15.0335 20.0658 14.6879 20.5101C14.3522 20.9545 13.8683 21.2951 13.2364 21.5321C12.6143 21.7691 11.8836 21.8876 11.0443 21.8876Z" fill="white"/>
<path d="M20.9737 21.8876C20.1048 21.8876 19.3296 21.7247 18.6483 21.3988C17.9769 21.0631 17.4535 20.6039 17.0783 20.0213C16.7031 19.4289 16.5155 18.7574 16.5155 18.007V15.0891C16.5155 14.3387 16.6982 13.6771 17.0635 13.1044C17.4387 12.5218 17.9571 12.0676 18.6187 11.7418C19.2902 11.4159 20.0505 11.253 20.8997 11.253C21.7488 11.253 22.5042 11.3863 23.1658 11.6529C23.8373 11.9096 24.3557 12.27 24.721 12.7341C25.0962 13.1982 25.2838 13.7265 25.2838 14.3189C25.2838 14.6645 25.1703 14.9361 24.9432 15.1336C24.7161 15.3212 24.41 15.415 24.0249 15.415C23.8373 15.415 23.6595 15.3952 23.4917 15.3558C23.5213 15.2076 23.5361 14.9904 23.5361 14.704C23.5361 14.1412 23.2892 13.6821 22.7955 13.3266C22.3117 12.9711 21.6797 12.7934 20.8997 12.7934C20.1295 12.7934 19.5024 13.0057 19.0186 13.4303C18.5348 13.8549 18.2928 14.4078 18.2928 15.0891V18.007C18.2928 18.4612 18.4064 18.8661 18.6335 19.2215C18.8606 19.577 19.1766 19.8535 19.5814 20.051C19.9863 20.2485 20.4504 20.3472 20.9737 20.3472C21.734 20.3472 22.3561 20.1645 22.84 19.7992C23.3337 19.424 23.5805 18.95 23.5805 18.3773V17.7848H22.0994C21.7538 17.7848 21.4674 17.6565 21.2403 17.3997C21.0231 17.1331 20.9145 16.7875 20.9145 16.3629H24.5136C24.7704 16.3629 24.9728 16.437 25.1209 16.5851C25.2789 16.7332 25.3579 16.9307 25.3579 17.1776V18.4069C25.3579 19.0784 25.1703 19.6807 24.7951 20.2139C24.4297 20.7372 23.9113 21.147 23.2399 21.4432C22.5783 21.7395 21.8229 21.8876 20.9737 21.8876Z" fill="white"/>
<path d="M49.6584 26.9242C48.5352 26.9242 47.556 26.7442 46.7208 26.3842C45.8856 26.0242 45.2376 25.5202 44.7768 24.8722C44.3304 24.2242 44.1072 23.461 44.1072 22.5826V22.0426C44.1072 21.9706 44.1288 21.913 44.172 21.8698C44.2296 21.8122 44.2944 21.7834 44.3664 21.7834H46.2888C46.3608 21.7834 46.4184 21.8122 46.4616 21.8698C46.5192 21.913 46.548 21.9706 46.548 22.0426V22.453C46.548 23.1154 46.8432 23.6698 47.4336 24.1162C48.024 24.5482 48.8304 24.7642 49.8528 24.7642C50.7312 24.7642 51.3936 24.577 51.84 24.2026C52.2864 23.8282 52.5096 23.3458 52.5096 22.7554C52.5096 22.3522 52.3872 22.0138 52.1424 21.7402C51.8976 21.4522 51.5448 21.193 51.084 20.9626C50.6376 20.7322 49.9608 20.4442 49.0536 20.0986C48.0312 19.7242 47.2032 19.3714 46.5696 19.0402C45.936 18.709 45.4032 18.2626 44.9712 17.701C44.5536 17.125 44.3448 16.4122 44.3448 15.5626C44.3448 14.2954 44.8056 13.2946 45.7272 12.5602C46.6488 11.8258 47.88 11.4586 49.4208 11.4586C50.5008 11.4586 51.4512 11.6458 52.272 12.0202C53.1072 12.3946 53.7552 12.9202 54.216 13.597C54.6768 14.2594 54.9072 15.0298 54.9072 15.9082V16.2754C54.9072 16.3474 54.8784 16.4122 54.8208 16.4698C54.7776 16.513 54.72 16.5346 54.648 16.5346H52.704C52.632 16.5346 52.5672 16.513 52.5096 16.4698C52.4664 16.4122 52.4448 16.3474 52.4448 16.2754V16.0378C52.4448 15.361 52.164 14.7922 51.6024 14.3314C51.0552 13.8562 50.292 13.6186 49.3128 13.6186C48.5208 13.6186 47.9016 13.7842 47.4552 14.1154C47.0232 14.4466 46.8072 14.9146 46.8072 15.5194C46.8072 15.9514 46.9224 16.3042 47.1528 16.5778C47.3832 16.8514 47.7288 17.1034 48.1896 17.3338C48.6504 17.5498 49.3632 17.8306 50.328 18.1762C51.3504 18.565 52.164 18.9178 52.7688 19.2346C53.388 19.5514 53.9136 19.9978 54.3456 20.5738C54.792 21.1354 55.0152 21.841 55.0152 22.6906C55.0152 23.9866 54.5328 25.0162 53.568 25.7794C52.6176 26.5426 51.3144 26.9242 49.6584 26.9242Z" fill="white"/>
<path d="M60.7594 15.541C61.6666 15.541 62.4658 15.6994 63.157 16.0162C63.8482 16.333 64.381 16.7722 64.7554 17.3338C65.1298 17.881 65.317 18.5074 65.317 19.213V26.4922C65.317 26.5642 65.2882 26.629 65.2306 26.6866C65.1874 26.7298 65.1298 26.7514 65.0578 26.7514H63.0706C62.9986 26.7514 62.9338 26.7298 62.8762 26.6866C62.833 26.629 62.8114 26.5642 62.8114 26.4922V25.801C62.8114 25.7578 62.797 25.7362 62.7682 25.7362C62.7394 25.7218 62.7106 25.729 62.6818 25.7578C61.9762 26.5354 60.9538 26.9242 59.6146 26.9242C58.5346 26.9242 57.6418 26.6506 56.9362 26.1034C56.245 25.5562 55.8994 24.7426 55.8994 23.6626C55.8994 22.5394 56.2882 21.6682 57.0658 21.049C57.8578 20.4154 58.9666 20.0986 60.3922 20.0986H62.7034C62.7754 20.0986 62.8114 20.0626 62.8114 19.9906V19.4722C62.8114 18.9106 62.6458 18.4786 62.3146 18.1762C61.9834 17.8594 61.4866 17.701 60.8242 17.701C60.277 17.701 59.8306 17.8018 59.485 18.0034C59.1538 18.1906 58.945 18.457 58.8586 18.8026C58.8154 18.9754 58.7146 19.0474 58.5562 19.0186L56.461 18.7594C56.389 18.745 56.3242 18.7234 56.2666 18.6946C56.2234 18.6514 56.209 18.601 56.2234 18.5434C56.3386 17.665 56.8066 16.945 57.6274 16.3834C58.4626 15.8218 59.5066 15.541 60.7594 15.541ZM60.241 24.937C60.9466 24.937 61.5514 24.7498 62.0554 24.3754C62.5594 24.001 62.8114 23.5258 62.8114 22.9498V21.9346C62.8114 21.8626 62.7754 21.8266 62.7034 21.8266H60.889C60.1258 21.8266 59.521 21.9706 59.0746 22.2586C58.6426 22.5466 58.4266 22.957 58.4266 23.4898C58.4266 23.9506 58.5922 24.3106 58.9234 24.5698C59.269 24.8146 59.7082 24.937 60.241 24.937Z" fill="white"/>
<path d="M72.7614 15.6922C72.8334 15.6922 72.891 15.721 72.9342 15.7786C72.9918 15.8218 73.0206 15.8794 73.0206 15.9514V17.6578C73.0206 17.7298 72.9918 17.7946 72.9342 17.8522C72.891 17.8954 72.8334 17.917 72.7614 17.917H70.623C70.551 17.917 70.515 17.953 70.515 18.025V26.4922C70.515 26.5642 70.4862 26.629 70.4286 26.6866C70.3854 26.7298 70.3278 26.7514 70.2558 26.7514H68.2686C68.1966 26.7514 68.1318 26.7298 68.0742 26.6866C68.031 26.629 68.0094 26.5642 68.0094 26.4922V18.025C68.0094 17.953 67.9734 17.917 67.9014 17.917H66.5622C66.4902 17.917 66.4254 17.8954 66.3678 17.8522C66.3246 17.7946 66.303 17.7298 66.303 17.6578V15.9514C66.303 15.8794 66.3246 15.8218 66.3678 15.7786C66.4254 15.721 66.4902 15.6922 66.5622 15.6922H67.9014C67.9734 15.6922 68.0094 15.6562 68.0094 15.5842V15.1954C68.0094 14.2594 68.1318 13.5394 68.3766 13.0354C68.6214 12.517 69.0246 12.1498 69.5862 11.9338C70.1478 11.7178 70.9398 11.617 71.9622 11.6314H72.7182C72.7902 11.6314 72.8478 11.6602 72.891 11.7178C72.9486 11.761 72.9774 11.8186 72.9774 11.8906V13.4026C72.9774 13.4746 72.9486 13.5394 72.891 13.597C72.8478 13.6402 72.7902 13.6618 72.7182 13.6618H72.1566C71.5374 13.6618 71.1054 13.7842 70.8606 14.029C70.6302 14.2738 70.515 14.7202 70.515 15.3682V15.5842C70.515 15.6562 70.551 15.6922 70.623 15.6922H72.7614Z" fill="white"/>
<path d="M83.0181 19.9906C83.0757 20.3506 83.1045 20.7538 83.1045 21.2002L83.0829 21.8698C83.0829 22.0426 82.9965 22.129 82.8237 22.129H76.0629C75.9909 22.129 75.9549 22.165 75.9549 22.237C75.9981 22.7122 76.0629 23.0362 76.1493 23.209C76.4949 24.2458 77.3373 24.7714 78.6765 24.7858C79.6557 24.7858 80.4333 24.3826 81.0093 23.5762C81.0669 23.4898 81.1389 23.4466 81.2253 23.4466C81.2829 23.4466 81.3333 23.4682 81.3765 23.5114L82.7157 24.613C82.8453 24.7138 82.8669 24.829 82.7805 24.9586C82.3341 25.5922 81.7365 26.0818 80.9877 26.4274C80.2533 26.773 79.4325 26.9458 78.5253 26.9458C77.4021 26.9458 76.4445 26.6938 75.6525 26.1898C74.8749 25.6858 74.3061 24.9802 73.9461 24.073C73.6149 23.2954 73.4493 22.2154 73.4493 20.833C73.4493 19.9978 73.5357 19.321 73.7085 18.8026C73.9965 17.7946 74.5365 17.0026 75.3285 16.4266C76.1349 15.8362 77.0997 15.541 78.2229 15.541C81.0597 15.541 82.6581 17.0242 83.0181 19.9906ZM78.2229 17.701C77.6901 17.701 77.2437 17.8378 76.8837 18.1114C76.5381 18.3706 76.2933 18.7378 76.1493 19.213C76.0629 19.4578 76.0053 19.7746 75.9765 20.1634C75.9477 20.2354 75.9765 20.2714 76.0629 20.2714H80.4477C80.5197 20.2714 80.5557 20.2354 80.5557 20.1634C80.5269 19.8034 80.4837 19.5298 80.4261 19.3426C80.2965 18.8242 80.0373 18.421 79.6485 18.133C79.2741 17.845 78.7989 17.701 78.2229 17.701Z" fill="white"/>
<path d="M90.0384 26.9242C88.9584 26.9242 88.008 26.7154 87.1872 26.2978C86.3664 25.8658 85.7328 25.261 85.2864 24.4834C84.84 23.7058 84.6168 22.813 84.6168 21.805V16.5778C84.6168 15.5554 84.84 14.6626 85.2864 13.8994C85.7328 13.1218 86.3664 12.5242 87.1872 12.1066C88.008 11.6746 88.9584 11.4586 90.0384 11.4586C91.104 11.4586 92.04 11.6674 92.8464 12.085C93.6672 12.5026 94.3008 13.0714 94.7472 13.7914C95.1936 14.5114 95.4168 15.325 95.4168 16.2322V16.405C95.4168 16.477 95.388 16.5418 95.3304 16.5994C95.2872 16.6426 95.2296 16.6642 95.1576 16.6642H93.192C93.12 16.6642 93.0552 16.6426 92.9976 16.5994C92.9544 16.5418 92.9328 16.477 92.9328 16.405V16.297C92.9328 15.5194 92.6664 14.8786 92.1336 14.3746C91.6152 13.8706 90.9168 13.6186 90.0384 13.6186C89.16 13.6186 88.4544 13.885 87.9216 14.4178C87.3888 14.9362 87.1224 15.6274 87.1224 16.4914V21.8914C87.1224 22.7554 87.4032 23.4538 87.9648 23.9866C88.5264 24.505 89.2536 24.7642 90.1464 24.7642C91.0104 24.7642 91.6872 24.541 92.1768 24.0946C92.6808 23.6338 92.9328 23.0074 92.9328 22.2154V20.8762C92.9328 20.8042 92.8968 20.7682 92.8248 20.7682H90.168C90.096 20.7682 90.0312 20.7466 89.9736 20.7034C89.9304 20.6458 89.9088 20.581 89.9088 20.509V18.9106C89.9088 18.8386 89.9304 18.781 89.9736 18.7378C90.0312 18.6802 90.096 18.6514 90.168 18.6514H95.1576C95.2296 18.6514 95.2872 18.6802 95.3304 18.7378C95.388 18.781 95.4168 18.8386 95.4168 18.9106V21.6754C95.4168 23.3314 94.9272 24.6202 93.948 25.5418C92.9832 26.4634 91.68 26.9242 90.0384 26.9242Z" fill="white"/>
<path d="M103.868 15.973C103.868 15.901 103.89 15.8434 103.933 15.8002C103.991 15.7426 104.056 15.7138 104.128 15.7138H106.093C106.165 15.7138 106.223 15.7426 106.266 15.8002C106.324 15.8434 106.352 15.901 106.352 15.973V26.4922C106.352 26.5642 106.324 26.629 106.266 26.6866C106.223 26.7298 106.165 26.7514 106.093 26.7514H104.128C104.056 26.7514 103.991 26.7298 103.933 26.6866C103.89 26.629 103.868 26.5642 103.868 26.4922V25.801C103.868 25.7578 103.854 25.729 103.825 25.7146C103.796 25.7002 103.768 25.7146 103.739 25.7578C103.148 26.521 102.263 26.9026 101.082 26.9026C99.9877 26.9026 99.0661 26.5858 98.3173 25.9522C97.5829 25.3186 97.2157 24.4186 97.2157 23.2522V15.973C97.2157 15.901 97.2373 15.8434 97.2805 15.8002C97.3381 15.7426 97.4029 15.7138 97.4749 15.7138H99.4621C99.5341 15.7138 99.5917 15.7426 99.6349 15.8002C99.6925 15.8434 99.7213 15.901 99.7213 15.973V22.5394C99.7213 23.2162 99.8941 23.7562 100.24 24.1594C100.6 24.5626 101.096 24.7642 101.73 24.7642C102.378 24.7642 102.896 24.5626 103.285 24.1594C103.674 23.7562 103.868 23.2162 103.868 22.5394V15.973Z" fill="white"/>
<path d="M112.595 15.541C113.502 15.541 114.302 15.6994 114.993 16.0162C115.684 16.333 116.217 16.7722 116.591 17.3338C116.966 17.881 117.153 18.5074 117.153 19.213V26.4922C117.153 26.5642 117.124 26.629 117.066 26.6866C117.023 26.7298 116.966 26.7514 116.894 26.7514H114.906C114.834 26.7514 114.77 26.7298 114.712 26.6866C114.669 26.629 114.647 26.5642 114.647 26.4922V25.801C114.647 25.7578 114.633 25.7362 114.604 25.7362C114.575 25.7218 114.546 25.729 114.518 25.7578C113.812 26.5354 112.79 26.9242 111.45 26.9242C110.37 26.9242 109.478 26.6506 108.772 26.1034C108.081 25.5562 107.735 24.7426 107.735 23.6626C107.735 22.5394 108.124 21.6682 108.902 21.049C109.694 20.4154 110.802 20.0986 112.228 20.0986H114.539C114.611 20.0986 114.647 20.0626 114.647 19.9906V19.4722C114.647 18.9106 114.482 18.4786 114.15 18.1762C113.819 17.8594 113.322 17.701 112.66 17.701C112.113 17.701 111.666 17.8018 111.321 18.0034C110.99 18.1906 110.781 18.457 110.694 18.8026C110.651 18.9754 110.55 19.0474 110.392 19.0186L108.297 18.7594C108.225 18.745 108.16 18.7234 108.102 18.6946C108.059 18.6514 108.045 18.601 108.059 18.5434C108.174 17.665 108.642 16.945 109.463 16.3834C110.298 15.8218 111.342 15.541 112.595 15.541ZM112.077 24.937C112.782 24.937 113.387 24.7498 113.891 24.3754C114.395 24.001 114.647 23.5258 114.647 22.9498V21.9346C114.647 21.8626 114.611 21.8266 114.539 21.8266H112.725C111.962 21.8266 111.357 21.9706 110.91 22.2586C110.478 22.5466 110.262 22.957 110.262 23.4898C110.262 23.9506 110.428 24.3106 110.759 24.5698C111.105 24.8146 111.544 24.937 112.077 24.937Z" fill="white"/>
<path d="M124.161 15.5842C124.622 15.5842 125.025 15.6778 125.371 15.865C125.486 15.9226 125.529 16.0306 125.5 16.189L125.133 18.133C125.119 18.3058 125.018 18.3562 124.831 18.2842C124.615 18.2122 124.363 18.1762 124.075 18.1762C123.888 18.1762 123.744 18.1834 123.643 18.1978C123.038 18.2266 122.534 18.4426 122.131 18.8458C121.728 19.2346 121.526 19.7458 121.526 20.3794V26.4922C121.526 26.5642 121.497 26.629 121.44 26.6866C121.396 26.7298 121.339 26.7514 121.267 26.7514H119.28C119.208 26.7514 119.143 26.7298 119.085 26.6866C119.042 26.629 119.02 26.5642 119.02 26.4922V15.973C119.02 15.901 119.042 15.8434 119.085 15.8002C119.143 15.7426 119.208 15.7138 119.28 15.7138H121.267C121.339 15.7138 121.396 15.7426 121.44 15.8002C121.497 15.8434 121.526 15.901 121.526 15.973V16.945C121.526 17.0026 121.533 17.0386 121.548 17.053C121.576 17.053 121.605 17.0314 121.634 16.9882C122.239 16.0522 123.081 15.5842 124.161 15.5842Z" fill="white"/>
<path d="M133.13 11.8906C133.13 11.8186 133.151 11.761 133.195 11.7178C133.252 11.6602 133.317 11.6314 133.389 11.6314H135.376C135.448 11.6314 135.506 11.6602 135.549 11.7178C135.607 11.761 135.635 11.8186 135.635 11.8906V26.4922C135.635 26.5642 135.607 26.629 135.549 26.6866C135.506 26.7298 135.448 26.7514 135.376 26.7514H133.389C133.317 26.7514 133.252 26.7298 133.195 26.6866C133.151 26.629 133.13 26.5642 133.13 26.4922V25.8442C133.13 25.801 133.115 25.7722 133.087 25.7578C133.058 25.7434 133.029 25.7578 133 25.801C132.367 26.5498 131.539 26.9242 130.516 26.9242C129.494 26.9242 128.63 26.6578 127.924 26.125C127.219 25.5922 126.707 24.8506 126.391 23.9002C126.131 23.0938 126.002 22.1938 126.002 21.2002C126.002 20.1778 126.124 19.2994 126.369 18.565C126.686 17.6146 127.197 16.873 127.903 16.3402C128.608 15.8074 129.494 15.541 130.559 15.541C131.553 15.541 132.367 15.901 133 16.621C133.029 16.6498 133.058 16.6642 133.087 16.6642C133.115 16.6498 133.13 16.621 133.13 16.5778V11.8906ZM132.611 23.7274C132.943 23.137 133.108 22.3018 133.108 21.2218C133.108 20.0986 132.928 19.2418 132.568 18.6514C132.179 18.0178 131.632 17.701 130.927 17.701C130.192 17.701 129.616 18.0034 129.199 18.6082C128.767 19.2418 128.551 20.1202 128.551 21.2434C128.551 22.2514 128.723 23.0794 129.069 23.7274C129.472 24.4186 130.084 24.7642 130.905 24.7642C131.639 24.7642 132.208 24.4186 132.611 23.7274Z" fill="white"/>
<path d="M139.126 14.2018C138.679 14.2018 138.312 14.0578 138.024 13.7698C137.736 13.4818 137.592 13.1146 137.592 12.6682C137.592 12.2218 137.736 11.8546 138.024 11.5666C138.312 11.2786 138.679 11.1346 139.126 11.1346C139.572 11.1346 139.939 11.2786 140.227 11.5666C140.515 11.8546 140.659 12.2218 140.659 12.6682C140.659 13.1146 140.515 13.4818 140.227 13.7698C139.939 14.0578 139.572 14.2018 139.126 14.2018ZM138.089 26.7514C138.017 26.7514 137.952 26.7298 137.895 26.6866C137.851 26.629 137.83 26.5642 137.83 26.4922V15.9514C137.83 15.8794 137.851 15.8218 137.895 15.7786C137.952 15.721 138.017 15.6922 138.089 15.6922H140.076C140.148 15.6922 140.206 15.721 140.249 15.7786C140.307 15.8218 140.335 15.8794 140.335 15.9514V26.4922C140.335 26.5642 140.307 26.629 140.249 26.6866C140.206 26.7298 140.148 26.7514 140.076 26.7514H138.089Z" fill="white"/>
<path d="M146.77 15.541C147.677 15.541 148.476 15.6994 149.167 16.0162C149.858 16.333 150.391 16.7722 150.766 17.3338C151.14 17.881 151.327 18.5074 151.327 19.213V26.4922C151.327 26.5642 151.298 26.629 151.241 26.6866C151.198 26.7298 151.14 26.7514 151.068 26.7514H149.081C149.009 26.7514 148.944 26.7298 148.886 26.6866C148.843 26.629 148.822 26.5642 148.822 26.4922V25.801C148.822 25.7578 148.807 25.7362 148.778 25.7362C148.75 25.7218 148.721 25.729 148.692 25.7578C147.986 26.5354 146.964 26.9242 145.625 26.9242C144.545 26.9242 143.652 26.6506 142.946 26.1034C142.255 25.5562 141.91 24.7426 141.91 23.6626C141.91 22.5394 142.298 21.6682 143.076 21.049C143.868 20.4154 144.977 20.0986 146.402 20.0986H148.714C148.786 20.0986 148.822 20.0626 148.822 19.9906V19.4722C148.822 18.9106 148.656 18.4786 148.325 18.1762C147.994 17.8594 147.497 17.701 146.834 17.701C146.287 17.701 145.841 17.8018 145.495 18.0034C145.164 18.1906 144.955 18.457 144.869 18.8026C144.826 18.9754 144.725 19.0474 144.566 19.0186L142.471 18.7594C142.399 18.745 142.334 18.7234 142.277 18.6946C142.234 18.6514 142.219 18.601 142.234 18.5434C142.349 17.665 142.817 16.945 143.638 16.3834C144.473 15.8218 145.517 15.541 146.77 15.541ZM146.251 24.937C146.957 24.937 147.562 24.7498 148.066 24.3754C148.57 24.001 148.822 23.5258 148.822 22.9498V21.9346C148.822 21.8626 148.786 21.8266 148.714 21.8266H146.899C146.136 21.8266 145.531 21.9706 145.085 22.2586C144.653 22.5466 144.437 22.957 144.437 23.4898C144.437 23.9506 144.602 24.3106 144.934 24.5698C145.279 24.8146 145.718 24.937 146.251 24.937Z" fill="white"/>
<path d="M158.487 15.541C159.653 15.541 160.582 15.8866 161.273 16.5778C161.979 17.269 162.332 18.2122 162.332 19.4074V26.4922C162.332 26.5642 162.303 26.629 162.245 26.6866C162.202 26.7298 162.144 26.7514 162.072 26.7514H160.085C160.013 26.7514 159.948 26.7298 159.891 26.6866C159.848 26.629 159.826 26.5642 159.826 26.4922V19.9258C159.826 19.2634 159.639 18.7306 159.264 18.3274C158.89 17.9098 158.393 17.701 157.774 17.701C157.155 17.701 156.651 17.9026 156.262 18.3058C155.888 18.709 155.7 19.2418 155.7 19.9042V26.4922C155.7 26.5642 155.672 26.629 155.614 26.6866C155.571 26.7298 155.513 26.7514 155.441 26.7514H153.454C153.382 26.7514 153.317 26.7298 153.26 26.6866C153.216 26.629 153.195 26.5642 153.195 26.4922V15.973C153.195 15.901 153.216 15.8434 153.26 15.8002C153.317 15.7426 153.382 15.7138 153.454 15.7138H155.441C155.513 15.7138 155.571 15.7426 155.614 15.8002C155.672 15.8434 155.7 15.901 155.7 15.973V16.6642C155.7 16.7074 155.715 16.7362 155.744 16.7506C155.772 16.765 155.794 16.7506 155.808 16.7074C156.399 15.9298 157.292 15.541 158.487 15.541Z" fill="white"/>
</svg>
