<svg width="167" height="62" viewBox="0 0 167 62" fill="none" xmlns="http://www.w3.org/2000/svg">
<path fill-rule="evenodd" clip-rule="evenodd" d="M56 9.3L83.5 0L111 9.3V25.141C111.003 30.7592 109.638 36.2912 107.026 41.2451C104.414 46.199 100.636 50.4215 96.0278 53.537L83.5 62L70.9722 53.537C66.3641 50.4215 62.586 46.199 59.974 41.2451C57.3619 36.2912 55.9968 30.7592 56 25.141V9.3ZM58.3571 10.9607L83.5 2.39143L108.643 10.9607V25.5571C108.646 30.7338 107.398 35.8311 105.009 40.3958C102.621 44.9605 99.1672 48.8512 94.954 51.722L83.5 59.52L72.046 51.722C67.8328 48.8512 64.3786 44.9605 61.9905 40.3958C59.6023 35.8311 58.3542 30.7338 58.3571 25.5571V10.9607Z" fill="white"/>
<path d="M74.748 37.6953C73.2729 37.6953 71.9907 37.4997 70.9011 37.1086C69.8116 36.7175 68.9735 36.1818 68.3868 35.5016C67.8169 34.8213 67.532 34.0391 67.532 33.1548C67.532 31.7773 68.3868 31.0886 70.0966 31.0886C70.1301 32.432 70.5491 33.4524 71.3537 34.1496C72.175 34.8468 73.3232 35.1955 74.7983 35.1955C76.0889 35.1955 77.0863 34.9744 77.7903 34.5322C78.4943 34.0901 78.8463 33.4524 78.8463 32.6191C78.8463 32.0919 78.7122 31.6668 78.444 31.3437C78.1758 31.0035 77.7232 30.7059 77.0863 30.4509C76.4493 30.1788 75.5274 29.9067 74.3206 29.6346C72.7114 29.2775 71.4375 28.8608 70.4988 28.3847C69.5769 27.9085 68.9065 27.3388 68.4874 26.6756C68.0684 26.0124 67.8588 25.1876 67.8588 24.2013C67.8588 23.2489 68.1354 22.4072 68.6886 21.6759C69.2417 20.9447 70.0211 20.3835 71.0268 19.9923C72.0326 19.5842 73.1975 19.3801 74.5217 19.3801C75.7788 19.3801 76.9103 19.5587 77.916 19.9158C78.9217 20.2559 79.7095 20.7406 80.2794 21.3698C80.8493 21.999 81.1343 22.7218 81.1343 23.538C81.1343 24.7114 80.3213 25.3236 78.6954 25.3747C78.5613 24.1502 78.159 23.2574 77.4886 22.6963C76.8348 22.1351 75.8459 21.8545 74.5217 21.8545C73.3484 21.8545 72.4432 22.0585 71.8063 22.4667C71.1693 22.8748 70.8508 23.453 70.8508 24.2013C70.8508 24.7114 70.9682 25.1366 71.2029 25.4767C71.4543 25.7998 71.8649 26.0889 72.4348 26.344C73.0048 26.5821 73.8261 26.8201 74.8988 27.0582C76.6086 27.4494 77.9663 27.8915 78.972 28.3847C79.9777 28.8608 80.6985 29.439 81.1343 30.1193C81.5868 30.7825 81.8131 31.6158 81.8131 32.6191C81.8131 33.6564 81.5198 34.5577 80.9331 35.323C80.3632 36.0883 79.5419 36.675 78.4691 37.0831C77.4131 37.4912 76.1728 37.6953 74.748 37.6953Z" fill="white"/>
<path d="M91.6035 37.6953C90.1285 37.6953 88.8127 37.4147 87.6561 36.8535C86.5163 36.2753 85.6279 35.4846 84.991 34.4812C84.354 33.4609 84.0355 32.3045 84.0355 31.0121V25.9869C84.0355 24.6944 84.3456 23.555 84.9658 22.5687C85.6028 21.5654 86.4828 20.7831 87.6058 20.2219C88.7456 19.6607 90.0363 19.3801 91.4778 19.3801C92.9193 19.3801 94.2016 19.6097 95.3247 20.0689C96.4645 20.511 97.3445 21.1317 97.9647 21.931C98.6016 22.7303 98.9201 23.6401 98.9201 24.6604C98.9201 25.2556 98.7273 25.7233 98.3418 26.0634C97.9563 26.3865 97.4367 26.548 96.7829 26.548C96.4645 26.548 96.1628 26.514 95.8778 26.446C95.9281 26.1909 95.9532 25.8168 95.9532 25.3236C95.9532 24.3543 95.5342 23.5635 94.6961 22.9513C93.8748 22.3391 92.802 22.033 91.4778 22.033C90.1704 22.033 89.106 22.3987 88.2847 23.1299C87.4633 23.8611 87.0527 24.8135 87.0527 25.9869V31.0121C87.0527 31.7943 87.2454 32.4916 87.631 33.1038C88.0165 33.716 88.5529 34.1921 89.2401 34.5322C89.9273 34.8723 90.7151 35.0424 91.6035 35.0424C92.8942 35.0424 93.9502 34.7278 94.7715 34.0986C95.6096 33.4524 96.0287 32.6361 96.0287 31.6498V30.6294H93.5144C92.9277 30.6294 92.4416 30.4083 92.0561 29.9662C91.6873 29.507 91.5029 28.9118 91.5029 28.1806H97.6127C98.0485 28.1806 98.3921 28.3081 98.6435 28.5632C98.9117 28.8183 99.0458 29.1584 99.0458 29.5836V31.7008C99.0458 32.8572 98.7273 33.8945 98.0904 34.8128C97.4702 35.7141 96.5902 36.4199 95.4504 36.93C94.3273 37.4402 93.045 37.6953 91.6035 37.6953Z" fill="white"/>
<path d="M0 30C0 29.4477 0.447715 29 1 29H31C31.5523 29 32 29.4477 32 30C32 30.5523 31.5523 31 31 31H1C0.447715 31 0 30.5523 0 30Z" fill="white"/>
<path d="M135 30C135 29.4477 135.448 29 136 29H166C166.552 29 167 29.4477 167 30C167 30.5523 166.552 31 166 31H136C135.448 31 135 30.5523 135 30Z" fill="white"/>
</svg>
